<svg width="136" height="136" viewBox="0 0 136 136" fill="none" xmlns="http://www.w3.org/2000/svg">
    <path fill-rule="evenodd" clip-rule="evenodd" d="M0 136h136V0H0v136z" fill="#f00"/>
    <path fill-rule="evenodd" clip-rule="evenodd"
          d="M27.224 28.859c1.413-.44 2.051-2 2.355-3.517.168-.68.37-1.319 1.077-1.319 1.043 0 .875 1.44.875 1.758v8.632c0 .32.168 1.758-.875 1.758-.707 0-.91-.64-1.077-1.318-.304-1.518-.942-3.077-2.355-3.517V28.86zm0-13.348h7.503v8.113c0 .2-.034.958-1.043.958-.572 0-.74-.4-.91-.998-.874-3.237-2.59-5.195-5.55-5.755v-2.318zm-9.758 4.476c0-1.478.034-1.718-1.143-2.158-.439-.16-.741-.52-.741-1.079 0-1.159 1.11-1.239 1.245-1.239h8.882v25.416c0 1.478-.033 1.719 1.145 2.158.437.16.74.52.74 1.08 0 1.158-1.11 1.237-1.245 1.237h-9.522c-.135 0-1.245-.08-1.245-1.238 0-.56.302-.92.74-1.08 1.178-.438 1.144-.679 1.144-2.157v-20.94zM46.774 40.927c0 1.478-.034 1.719 1.144 2.158.438.16.74.52.74 1.08 0 1.158-1.11 1.237-1.245 1.237H37.89c-.134 0-1.244-.08-1.244-1.238 0-.56.302-.92.74-1.08 1.177-.438 1.144-.679 1.144-2.157v-20.94c0-1.478.033-1.718-1.145-2.158-.437-.16-.74-.52-.74-1.079 0-1.159 1.11-1.239 1.245-1.239h9.522c.135 0 1.245.08 1.245 1.24 0 .559-.302.918-.74 1.078-1.178.44-1.144.68-1.144 2.158v20.94zM71.573 24.823c0 .16-.1 1.159-1.11 1.159-.942 0-1.11-1.04-1.212-1.92-.303-2.117-.773-4.754-2.523-6.233v-2.318h4.845v9.312zM56.97 15.51h8.244v25.416c0 1.478-.033 1.718 1.144 2.158.437.16.74.52.74 1.08 0 1.157-1.11 1.238-1.245 1.238h-9.522c-.135 0-1.246-.08-1.246-1.239 0-.56.303-.92.741-1.08 1.177-.439 1.144-.68 1.144-2.158V15.511zm-6.359 0h4.846v2.319c-1.75 1.478-2.221 4.116-2.524 6.233-.101.88-.27 1.919-1.212 1.919-1.009 0-1.11-1-1.11-1.16v-9.31zM27.27 66.406c1.414-.44 2.053-1.999 2.356-3.516.168-.68.37-1.319 1.077-1.319 1.043 0 .874 1.439.874 1.758v8.632c0 .32.169 1.758-.874 1.758-.707 0-.909-.639-1.077-1.319-.303-1.518-.942-3.077-2.356-3.516v-2.478zm0-13.347h7.504v8.112c0 .2-.033.96-1.043.96-.572 0-.74-.4-.908-1-.875-3.237-2.591-5.195-5.553-5.755V53.06zm-9.757 4.476c0-1.479.034-1.719-1.144-2.159-.438-.16-.74-.519-.74-1.079 0-1.159 1.11-1.238 1.245-1.238h8.883v25.416c0 1.478-.034 1.717 1.144 2.157.437.16.74.52.74 1.08 0 1.158-1.11 1.239-1.245 1.239h-9.522c-.135 0-1.245-.081-1.245-1.24 0-.56.302-.919.74-1.08 1.178-.439 1.144-.678 1.144-2.156v-20.94zM47.899 81.231c1.581-.679 1.716-1.878 1.716-2.876V57.654c0-1-.135-2.197-1.716-2.877v-2.318c7.134.76 10.464 7.593 10.464 15.545 0 7.954-3.33 14.786-10.464 15.545v-2.318zm-1.513-26.454c-1.582.68-1.717 1.877-1.717 2.877v20.701c0 .998.135 2.197 1.717 2.876v2.319c-7.133-.76-10.465-7.592-10.465-15.546 0-7.952 3.332-14.785 10.465-15.544v2.317zM72.093 53.059h.168c2.188 0 4.476-.08 6.495 1.079 2.254 1.318 3.398 3.516 3.431 6.552.068 4.597-2.489 6.595-5.922 7.554v.08c2.995.52 5.856 1.559 5.922 5.794v3.517c0 .36-.1 1.16.337 1.16.54 0 .639-1.16 1.447-1.16.438 0 .975.6.975 1.16 0 1.158-1.11 2.636-1.85 3.315-1.144 1.12-2.355 1.44-3.802 1.44s-2.759-.44-3.802-1.68c-1.178-1.438-1.346-3.197-1.346-5.075V74.08c0-1.839-.034-4.076-2.053-4.316v-2.358c1.817-.2 2.053-1.519 2.053-3.477v-4.835c0-1.998-.37-2.957-2.053-3.677V53.06zm-9.757 4.474c0-1.478.033-1.718-1.144-2.157-.438-.16-.74-.52-.74-1.08 0-1.158 1.11-1.238 1.244-1.238h8.884v25.415c0 1.479-.034 1.718 1.144 2.157.437.161.74.52.74 1.08 0 1.159-1.111 1.24-1.245 1.24h-9.523c-.134 0-1.244-.081-1.244-1.24 0-.56.303-.919.74-1.08 1.177-.439 1.144-.678 1.144-2.157v-20.94zM27.27 103.953c1.413-.44 2.053-1.999 2.356-3.517.168-.68.37-1.318 1.077-1.318 1.043 0 .874 1.438.874 1.758v8.631c0 .32.169 1.758-.874 1.758-.707 0-.909-.639-1.077-1.318-.303-1.519-.943-3.077-2.356-3.516v-2.478zm0-13.348h7.503v8.113c0 .2-.032.96-1.042.96-.572 0-.74-.4-.909-1-.875-3.237-2.59-5.195-5.552-5.755v-2.318zm-9.757 4.477c0-1.479.034-1.719-1.144-2.159-.438-.16-.74-.52-.74-1.08 0-1.158 1.11-1.238 1.245-1.238h8.882v25.417c0 1.477-.033 1.717 1.145 2.157.437.16.74.519.74 1.079 0 1.158-1.11 1.239-1.245 1.239h-9.522c-.135 0-1.245-.081-1.245-1.239 0-.56.302-.919.74-1.079 1.178-.44 1.144-.68 1.144-2.157v-20.94zM48.471 90.605h.168c2.187 0 4.475-.08 6.495 1.08 2.253 1.318 3.398 3.516 3.432 6.552.066 4.598-2.49 6.595-5.923 7.554v.081c2.996.518 5.855 1.559 5.923 5.793v3.517c0 .36-.102 1.159.336 1.159.539 0 .639-1.159 1.447-1.159.437 0 .975.599.975 1.159 0 1.158-1.11 2.636-1.85 3.317-1.144 1.118-2.355 1.438-3.802 1.438s-2.76-.44-3.802-1.678c-1.178-1.439-1.346-3.198-1.346-5.075v-2.718c0-1.838-.034-4.075-2.053-4.315v-2.36c1.817-.198 2.053-1.517 2.053-3.475v-4.836c0-1.998-.37-2.957-2.053-3.676v-2.358zm-9.757 4.475c0-1.478.033-1.718-1.144-2.158-.438-.16-.74-.52-.74-1.079 0-1.158 1.11-1.239 1.244-1.239h8.884v25.416c0 1.478-.035 1.718 1.143 2.158.438.16.74.519.74 1.079 0 1.158-1.11 1.239-1.244 1.239h-9.523c-.134 0-1.245-.081-1.245-1.239 0-.56.303-.919.741-1.079 1.177-.44 1.144-.68 1.144-2.158V95.08zM73.506 118.179c2.726-.399 4.812-2.597 5.72-5.795.236-.599.438-1.239 1.044-1.239 1.076 0 .975 1.2.975 1.359v7.992h-7.739v-2.317zm0-14.226c1.413-.44 2.052-1.999 2.356-3.517.168-.68.37-1.319 1.076-1.319 1.043 0 .876 1.439.876 1.758v8.632c0 .32.167 1.758-.876 1.758-.706 0-.908-.639-1.076-1.318-.304-1.519-.942-3.077-2.356-3.517v-2.477zm0-13.348h7.504v8.113c0 .2-.034.96-1.043.96-.572 0-.74-.4-.908-1-.876-3.237-2.591-5.195-5.553-5.755v-2.318zm-10.397 0h8.884v29.891h-8.884c-.134 0-1.245-.08-1.245-1.238 0-.56.303-.919.74-1.079 1.179-.44 1.144-.68 1.144-2.158v-20.94c0-1.478.035-1.718-1.143-2.158-.438-.16-.74-.52-.74-1.079 0-1.158 1.11-1.239 1.244-1.239zM95.345 118.179c2.725-.399 4.811-2.597 5.72-5.795.235-.599.437-1.239 1.043-1.239 1.077 0 .976 1.2.976 1.359v7.992h-7.74v-2.317zm0-14.226c1.413-.44 2.052-1.999 2.355-3.517.169-.68.37-1.319 1.077-1.319 1.043 0 .875 1.439.875 1.758v8.632c0 .32.168 1.758-.875 1.758-.707 0-.908-.639-1.077-1.318-.303-1.519-.942-3.077-2.355-3.517v-2.477zm0-13.348h7.504v8.113c0 .2-.034.96-1.044.96-.572 0-.74-.4-.909-1-.875-3.237-2.59-5.195-5.551-5.755v-2.318zm-10.398 0h8.884v29.891h-8.884c-.134 0-1.245-.08-1.245-1.238 0-.56.302-.919.74-1.079 1.179-.44 1.145-.68 1.145-2.158v-20.94c0-1.478.034-1.718-1.144-2.158-.439-.16-.74-.52-.74-1.079 0-1.158 1.11-1.239 1.244-1.239z"
          fill="#fff"/>
</svg>
